<svg width="24" height="25" viewBox="0 0 24 25" fill="none" xmlns="http://www.w3.org/2000/svg">
<path d="M12 24.5C10.374 24.5 8.84 23.786 7.792 22.541C6.252 22.717 4.665 22.136 3.515 20.986C2.366 19.836 1.786 18.246 1.925 16.624C0.714 15.66 0 14.126 0 12.5C0 10.874 0.714 9.34 1.96 8.292C1.785 6.755 2.365 5.165 3.515 4.015C4.665 2.865 6.252 2.282 7.876 2.425C8.84 1.215 10.374 0.5 12 0.5C13.626 0.5 15.16 1.214 16.208 2.459C17.75 2.286 19.335 2.864 20.485 4.014C21.634 5.164 22.214 6.754 22.075 8.376C23.286 9.34 24 10.874 24 12.5C24 14.126 23.286 15.66 22.04 16.708C22.215 18.245 21.635 19.835 20.485 20.985C19.334 22.135 17.744 22.711 16.124 22.575C15.16 23.785 13.626 24.5 12 24.5ZM7.873 20.576C8.434 20.576 8.954 20.817 9.321 21.252C9.989 22.045 10.965 22.5 12 22.5C13.035 22.5 14.011 22.045 14.679 21.252C15.082 20.773 15.669 20.531 16.295 20.582C17.329 20.669 18.339 20.302 19.071 19.57C19.802 18.839 20.171 17.827 20.083 16.794C20.029 16.17 20.273 15.581 20.753 15.177C21.545 14.51 22 13.533 22 12.499C22 11.465 21.545 10.488 20.753 9.821C20.274 9.418 20.029 8.828 20.083 8.204C20.171 7.171 19.803 6.159 19.071 5.428C18.339 4.697 17.323 4.334 16.296 4.416C15.67 4.472 15.082 4.225 14.679 3.747C14.011 2.954 13.035 2.499 12 2.499C10.965 2.499 9.989 2.954 9.321 3.747C8.917 4.226 8.328 4.466 7.705 4.417C6.666 4.327 5.661 4.697 4.929 5.429C4.198 6.16 3.829 7.172 3.917 8.205C3.971 8.829 3.727 9.418 3.247 9.822C2.455 10.489 2 11.466 2 12.5C2 13.534 2.455 14.511 3.247 15.178C3.726 15.581 3.971 16.171 3.917 16.795C3.829 17.828 4.197 18.84 4.929 19.571C5.661 20.302 6.682 20.666 7.704 20.583C7.761 20.578 7.817 20.576 7.873 20.576ZM12.801 15.635L17.54 11.067C17.937 10.684 17.949 10.05 17.565 9.653C17.182 9.256 16.549 9.244 16.151 9.627L11.399 14.208C11.008 14.599 10.377 14.599 9.959 14.183L7.681 12.066C7.279 11.691 6.645 11.713 6.268 12.118C5.892 12.522 5.915 13.155 6.32 13.531L8.572 15.623C9.158 16.209 9.929 16.502 10.698 16.502C11.463 16.502 12.224 16.213 12.802 15.636L12.801 15.635Z" fill="#081A28"/>
</svg>
