<svg version="1.2" xmlns="http://www.w3.org/2000/svg" viewBox="0 0 25 25" width="25" height="25">
	<title>google-svg</title>
	<style>
		.s0 { fill: #167ee6 } 
		.s1 { fill: #12b347 } 
		.s2 { fill: #0f993e } 
		.s3 { fill: #ffd500 } 
		.s4 { fill: #ff4b26 } 
		.s5 { fill: #d93f21 } 
	</style>
	<path id="Layer" class="s0" d="m24.9 11c0.1 0.5 0.1 1 0.1 1.6 0 4.5-2.3 8.4-6.2 10.7l-2.5-4.2c1.5-0.9 2.7-2.3 3.3-3.9h-5.7c-0.5 0-0.9-0.4-0.9-0.8v-3.3c0-0.4 0.4-0.8 0.9-0.8h10.2c0.4 0 0.7 0.3 0.8 0.7z"/>
	<path id="Layer" class="s1" d="m16.3 19.1l2.4 4.2c-1.8 1.1-3.9 1.7-6.2 1.7-4.6 0-8.7-2.5-10.8-6.3l4.2-2.4c1.3 2.3 3.8 3.8 6.6 3.8 1.4 0 2.7-0.4 3.8-1z"/>
	<path id="Layer" class="s2" d="m12.5 25v-4.9c1.4 0 2.7-0.4 3.8-1l2.5 4.2c-1.9 1.1-4 1.7-6.3 1.7z"/>
	<path id="Layer" class="s3" d="m5.9 16.3l-4.2 2.4c-1.1-1.8-1.7-3.9-1.7-6.2 0-2.3 0.6-4.4 1.7-6.2l4.2 2.4c-0.6 1.1-1 2.4-1 3.8 0 1.4 0.4 2.7 1 3.8z"/>
	<path id="Layer" class="s4" d="m5.9 8.7l-4.2-2.4c2.1-3.8 6.2-6.3 10.8-6.3 3.1 0 6 1.2 8.2 3.1 0.3 0.3 0.4 0.8 0 1.2l-2.3 2.3c-0.3 0.3-0.7 0.3-1.1 0-1.3-1.1-3-1.7-4.8-1.7-2.8 0-5.3 1.5-6.6 3.8z"/>
	<path id="Layer" class="s5" d="m12.5 4.9v-4.9c3.1 0 6 1.2 8.2 3.1 0.3 0.3 0.4 0.8 0 1.2l-2.3 2.3c-0.3 0.3-0.7 0.3-1.1 0-1.3-1.1-3-1.7-4.8-1.7z"/>
	<g id="Layer">
	</g>
	<g id="Layer">
	</g>
	<g id="Layer">
	</g>
	<g id="Layer">
	</g>
	<g id="Layer">
	</g>
	<g id="Layer">
	</g>
	<g id="Layer">
	</g>
	<g id="Layer">
	</g>
	<g id="Layer">
	</g>
	<g id="Layer">
	</g>
	<g id="Layer">
	</g>
	<g id="Layer">
	</g>
	<g id="Layer">
	</g>
	<g id="Layer">
	</g>
	<g id="Layer">
	</g>
</svg>